<?xml version="1.0" encoding="UTF-8"?>
<!DOCTYPE svg PUBLIC "-//W3C//DTD SVG 1.1//EN" "http://www.w3.org/Graphics/SVG/1.1/DTD/svg11.dtd">
<!-- Creator: CorelDRAW -->
<svg class="w-8 h-8 fill-white" xmlns="http://www.w3.org/2000/svg" xml:space="preserve" version="1.1" style="shape-rendering:geometricPrecision; text-rendering:geometricPrecision; image-rendering:optimizeQuality; fill-rule:evenodd; clip-rule:evenodd"
viewBox="0 0 1707 1707"
 xmlns:xlink="http://www.w3.org/1999/xlink">
 <defs>
  <style type="text/css">
   <![CDATA[
    .fil0 {fill:#000002}
   ]]>
  </style>
 </defs>
 <g id="Layer_x0020_1">
  <metadata id="CorelCorpID_0Corel-Layer"/>
  <path class="fil0" d="M298 1311l0 -242c0,-30 46,-30 46,0l0 242 457 0c12,-172 131,-311 305,-345 -34,-108 -137,-185 -252,-185l-49 0 -155 206c-9,12 -27,12 -36,0l-155 -206 -48 0c-147,0 -265,119 -265,265l0 265 152 0zm875 396c-198,0 -360,-155 -372,-351l-678 0c-13,0 -23,-10 -23,-22l0 -288c0,-171 139,-310 311,-310l46 0 44 -75c-74,-44 -124,-124 -124,-216l0 -81c-9,-30 -52,-215 98,-316 47,-32 98,-48 152,-48 97,0 169,52 172,54 152,115 91,281 77,313 -6,33 34,194 -115,289l46 80 47 0c138,0 260,93 298,225 214,-12 394,159 394,373 0,205 -167,373 -373,373zm0 -701c-180,0 -326,144 -327,328 0,181 147,327 327,327 181,0 328,-147 328,-327 0,-181 -147,-328 -328,-328zm0 310c-28,0 -22,-34 -22,-52l-143 0c-12,0 -23,-11 -23,-23l0 -105c0,-13 11,-23 23,-23l143 0c0,-22 -4,-41 11,-50 8,-4 16,-4 23,1l166 105c14,9 14,29 0,38l-166 106c-3,2 -8,3 -12,3zm-142 -98l142 0c23,0 23,22 23,34l100 -64 -100 -64c0,13 0,34 -23,34l-142 0 0 60zm142 389c-4,0 -8,-1 -12,-4l-165 -105c-14,-9 -14,-29 0,-38l165 -106c15,-9 35,2 35,20l0 30 142 0c13,0 23,10 23,22l0 106c0,12 -10,22 -23,22l-142 0c0,19 6,53 -23,53zm-123 -128l101 64c0,-13 -1,-34 22,-34l143 0 0 -60 -143 0c-23,0 -22,-22 -22,-34l-101 64zm534 -790l-558 0c-13,0 -23,-11 -23,-23l0 -495c0,-13 10,-23 23,-23l558 0c12,0 22,10 22,23l0 495c0,12 -10,23 -22,23zm-535 -46l512 0 0 -450 -512 0 0 450zm434 -331l-356 0c-30,0 -30,-45 0,-45l356 0c30,0 30,45 0,45zm0 129l-356 0c-30,0 -30,-45 0,-45l356 0c30,0 30,45 0,45zm0 129l-356 0c-30,0 -30,-45 0,-45l356 0c30,0 30,45 0,45zm-652 -207c-20,-275 -407,-172 -409,-1l0 83c0,82 48,152 118,185 30,13 50,20 87,20 110,0 204,-90 204,-205l0 -82zm-179 -215c78,0 163,33 203,121 14,-182 -205,-284 -354,-184 -73,50 -91,122 -92,180 50,-72 150,-117 243,-117zm-25 547c-30,0 -59,-5 -85,-15l-44 77 134 178 135 -178 -46 -80c-29,12 -61,18 -94,18z"/>
 </g>
</svg>
