<svg width="778" height="336" viewBox="0 0 778 336" fill="none" xmlns="http://www.w3.org/2000/svg">
<rect width="778" height="336" fill="#F2F2F2"/>
<path d="M213.793 71C154.246 71 106 119.025 106 178.3C106 237.575 154.246 285.6 213.793 285.6C273.339 285.6 321.585 237.575 321.585 178.3C321.585 119.025 273.339 71 213.793 71ZM213.793 264.832C165.764 264.832 126.863 226.109 126.863 178.3C126.863 130.491 165.764 91.7678 213.793 91.7678C261.821 91.7678 300.722 130.491 300.722 178.3C300.722 226.109 261.821 264.832 213.793 264.832ZM240.654 219.662L203.752 192.967C202.405 191.972 201.622 190.415 201.622 188.77V117.727C201.622 114.872 203.97 112.536 206.838 112.536H220.747C223.616 112.536 225.963 114.872 225.963 117.727V179.036L254.997 200.063C257.344 201.75 257.822 204.995 256.127 207.332L247.956 218.538C246.261 220.831 243.001 221.35 240.654 219.662Z" fill="#068DEF"/>
<path d="M394.057 149V90.8182H417.352C421.633 90.8182 425.203 91.4527 428.062 92.7216C430.922 93.9905 433.072 95.7519 434.511 98.0057C435.951 100.241 436.67 102.816 436.67 105.733C436.67 108.006 436.216 110.004 435.307 111.727C434.398 113.432 433.148 114.833 431.557 115.932C429.985 117.011 428.186 117.778 426.159 118.233V118.801C428.375 118.896 430.449 119.521 432.381 120.676C434.331 121.831 435.913 123.451 437.125 125.534C438.337 127.598 438.943 130.061 438.943 132.92C438.943 136.008 438.176 138.763 436.642 141.188C435.127 143.593 432.883 145.496 429.909 146.898C426.936 148.299 423.271 149 418.915 149H394.057ZM406.358 138.943H416.386C419.814 138.943 422.314 138.29 423.886 136.983C425.458 135.657 426.244 133.896 426.244 131.699C426.244 130.089 425.856 128.669 425.08 127.438C424.303 126.206 423.195 125.241 421.756 124.54C420.335 123.839 418.64 123.489 416.67 123.489H406.358V138.943ZM406.358 115.165H415.477C417.163 115.165 418.659 114.871 419.966 114.284C421.292 113.678 422.333 112.826 423.091 111.727C423.867 110.629 424.256 109.312 424.256 107.778C424.256 105.676 423.508 103.981 422.011 102.693C420.534 101.405 418.432 100.761 415.705 100.761H406.358V115.165ZM474.703 130.42V105.364H486.805V149H475.186V141.074H474.732C473.747 143.631 472.108 145.686 469.817 147.239C467.544 148.792 464.769 149.568 461.493 149.568C458.576 149.568 456.01 148.905 453.794 147.58C451.578 146.254 449.845 144.369 448.595 141.926C447.364 139.483 446.739 136.557 446.72 133.148V105.364H458.822V130.989C458.841 133.564 459.533 135.6 460.896 137.097C462.26 138.593 464.088 139.341 466.379 139.341C467.838 139.341 469.201 139.009 470.47 138.347C471.739 137.665 472.762 136.661 473.538 135.335C474.334 134.009 474.722 132.371 474.703 130.42ZM507.452 136.443L507.48 121.926H509.241L523.219 105.364H537.111L518.332 127.295H515.463L507.452 136.443ZM496.486 149V90.8182H508.588V149H496.486ZM523.759 149L510.918 129.994L518.986 121.443L537.935 149H523.759ZM555.491 149.824C552.707 149.824 550.226 149.341 548.048 148.375C545.87 147.39 544.147 145.941 542.878 144.028C541.628 142.097 541.003 139.691 541.003 136.812C541.003 134.388 541.448 132.352 542.338 130.705C543.228 129.057 544.44 127.731 545.974 126.727C547.509 125.723 549.251 124.966 551.202 124.455C553.171 123.943 555.236 123.583 557.395 123.375C559.933 123.11 561.978 122.864 563.531 122.636C565.084 122.39 566.211 122.03 566.912 121.557C567.613 121.083 567.963 120.383 567.963 119.455V119.284C567.963 117.485 567.395 116.093 566.259 115.108C565.141 114.123 563.55 113.631 561.486 113.631C559.308 113.631 557.575 114.114 556.287 115.08C554.999 116.027 554.147 117.22 553.73 118.659L542.537 117.75C543.105 115.098 544.223 112.807 545.889 110.875C547.556 108.924 549.705 107.428 552.338 106.386C554.99 105.326 558.058 104.795 561.543 104.795C563.967 104.795 566.287 105.08 568.503 105.648C570.738 106.216 572.717 107.097 574.44 108.29C576.183 109.483 577.556 111.017 578.56 112.892C579.563 114.748 580.065 116.973 580.065 119.568V149H568.588V142.949H568.247C567.546 144.312 566.609 145.515 565.435 146.557C564.26 147.58 562.849 148.384 561.202 148.972C559.554 149.54 557.651 149.824 555.491 149.824ZM558.957 141.472C560.738 141.472 562.31 141.121 563.673 140.42C565.037 139.701 566.107 138.735 566.884 137.523C567.66 136.311 568.048 134.937 568.048 133.403V128.773C567.67 129.019 567.149 129.246 566.486 129.455C565.842 129.644 565.113 129.824 564.298 129.994C563.484 130.146 562.67 130.288 561.855 130.42C561.041 130.534 560.302 130.638 559.639 130.733C558.219 130.941 556.978 131.273 555.918 131.727C554.857 132.182 554.033 132.797 553.446 133.574C552.859 134.331 552.565 135.278 552.565 136.415C552.565 138.062 553.162 139.322 554.355 140.193C555.567 141.045 557.101 141.472 558.957 141.472ZM393.716 246V237.136L414.426 217.96C416.188 216.256 417.665 214.722 418.858 213.358C420.07 211.994 420.989 210.659 421.614 209.352C422.239 208.027 422.551 206.597 422.551 205.062C422.551 203.358 422.163 201.89 421.386 200.659C420.61 199.409 419.549 198.453 418.205 197.79C416.86 197.108 415.335 196.767 413.631 196.767C411.85 196.767 410.297 197.127 408.972 197.847C407.646 198.566 406.623 199.598 405.903 200.943C405.184 202.288 404.824 203.888 404.824 205.744H393.148C393.148 201.937 394.009 198.633 395.733 195.83C397.456 193.027 399.871 190.858 402.977 189.324C406.083 187.79 409.663 187.023 413.716 187.023C417.883 187.023 421.509 187.761 424.597 189.239C427.703 190.697 430.117 192.723 431.841 195.318C433.564 197.913 434.426 200.886 434.426 204.239C434.426 206.436 433.991 208.604 433.119 210.744C432.267 212.884 430.742 215.261 428.545 217.875C426.348 220.47 423.252 223.585 419.256 227.222L410.761 235.545V235.943H435.193V246H393.716ZM441.976 235.773V226.085L466.266 187.818H474.618V201.227H469.675L454.362 225.46V225.915H488.879V235.773H441.976ZM469.902 246V232.818L470.129 228.528V187.818H481.663V246H469.902ZM539.227 187.818H551.386V228.386C551.386 232.136 550.544 235.394 548.858 238.159C547.191 240.924 544.871 243.055 541.898 244.551C538.924 246.047 535.468 246.795 531.528 246.795C528.025 246.795 524.843 246.18 521.983 244.949C519.142 243.699 516.888 241.805 515.222 239.267C513.555 236.71 512.731 233.5 512.75 229.636H524.994C525.032 231.17 525.345 232.487 525.932 233.585C526.538 234.665 527.362 235.498 528.403 236.085C529.464 236.653 530.714 236.938 532.153 236.938C533.669 236.938 534.947 236.616 535.989 235.972C537.049 235.309 537.854 234.343 538.403 233.074C538.953 231.805 539.227 230.242 539.227 228.386V187.818ZM573.773 246.824C570.989 246.824 568.508 246.341 566.33 245.375C564.152 244.39 562.428 242.941 561.159 241.028C559.909 239.097 559.284 236.691 559.284 233.812C559.284 231.388 559.729 229.352 560.619 227.705C561.509 226.057 562.722 224.731 564.256 223.727C565.79 222.723 567.532 221.966 569.483 221.455C571.453 220.943 573.517 220.583 575.676 220.375C578.214 220.11 580.259 219.864 581.812 219.636C583.366 219.39 584.492 219.03 585.193 218.557C585.894 218.083 586.244 217.383 586.244 216.455V216.284C586.244 214.485 585.676 213.093 584.54 212.108C583.422 211.123 581.831 210.631 579.767 210.631C577.589 210.631 575.856 211.114 574.568 212.08C573.28 213.027 572.428 214.22 572.011 215.659L560.818 214.75C561.386 212.098 562.504 209.807 564.17 207.875C565.837 205.924 567.987 204.428 570.619 203.386C573.271 202.326 576.339 201.795 579.824 201.795C582.248 201.795 584.568 202.08 586.784 202.648C589.019 203.216 590.998 204.097 592.722 205.29C594.464 206.483 595.837 208.017 596.841 209.892C597.845 211.748 598.347 213.973 598.347 216.568V246H586.869V239.949H586.528C585.828 241.312 584.89 242.515 583.716 243.557C582.542 244.58 581.131 245.384 579.483 245.972C577.835 246.54 575.932 246.824 573.773 246.824ZM577.239 238.472C579.019 238.472 580.591 238.121 581.955 237.42C583.318 236.701 584.388 235.735 585.165 234.523C585.941 233.311 586.33 231.937 586.33 230.403V225.773C585.951 226.019 585.43 226.246 584.767 226.455C584.123 226.644 583.394 226.824 582.58 226.994C581.765 227.146 580.951 227.288 580.136 227.42C579.322 227.534 578.583 227.638 577.92 227.733C576.5 227.941 575.259 228.273 574.199 228.727C573.138 229.182 572.314 229.797 571.727 230.574C571.14 231.331 570.847 232.278 570.847 233.415C570.847 235.062 571.443 236.322 572.636 237.193C573.848 238.045 575.383 238.472 577.239 238.472ZM607.736 246V202.364H619.27V210.062H619.781C620.69 207.506 622.205 205.489 624.327 204.011C626.448 202.534 628.986 201.795 631.94 201.795C634.933 201.795 637.48 202.544 639.582 204.04C641.685 205.517 643.086 207.525 643.787 210.062H644.241C645.132 207.562 646.741 205.564 649.071 204.068C651.42 202.553 654.194 201.795 657.395 201.795C661.467 201.795 664.772 203.093 667.31 205.688C669.866 208.263 671.145 211.919 671.145 216.653V246H659.071V219.04C659.071 216.616 658.427 214.797 657.139 213.585C655.851 212.373 654.241 211.767 652.31 211.767C650.113 211.767 648.399 212.468 647.168 213.869C645.937 215.252 645.321 217.08 645.321 219.352V246H633.588V218.784C633.588 216.644 632.973 214.939 631.741 213.67C630.529 212.402 628.929 211.767 626.94 211.767C625.596 211.767 624.384 212.108 623.304 212.79C622.243 213.453 621.401 214.39 620.776 215.602C620.151 216.795 619.838 218.197 619.838 219.807V246H607.736Z" fill="#313866"/>
</svg>
