<svg width="416" height="336" viewBox="0 0 416 336" fill="none" xmlns="http://www.w3.org/2000/svg">
<rect width="416" height="336" fill="#F2F2F2"/>
<path d="M328.143 134.929H319.5L260.739 63.5998C257.5 59.6687 253.391 56.4953 248.718 54.3143C244.045 52.1333 238.926 51.0006 233.741 51H118.192C104.055 51 91.3448 59.3561 86.0943 72.1028L60.2143 136.114C45.327 139.859 34.2858 152.874 34.2858 168.5V227.25C34.2858 231.887 38.1534 235.643 42.9286 235.643H68.8572C68.8572 263.455 92.0741 286 120.714 286C149.355 286 172.571 263.455 172.571 235.643H241.714C241.714 263.455 264.931 286 293.571 286C322.212 286 345.429 263.455 345.429 235.643H371.357C376.132 235.643 380 231.887 380 227.25V185.286C380 157.474 356.783 134.929 328.143 134.929ZM120.714 260.821C106.416 260.821 94.7858 249.528 94.7858 235.643C94.7858 221.758 106.416 210.464 120.714 210.464C135.013 210.464 146.643 221.758 146.643 235.643C146.643 249.528 135.013 260.821 120.714 260.821ZM159.607 134.929H97.4488L118.192 84.5714H159.607V134.929ZM185.536 134.929V84.5714H233.741L275.227 134.929H185.536ZM293.571 260.821C279.273 260.821 267.643 249.528 267.643 235.643C267.643 221.758 279.273 210.464 293.571 210.464C307.87 210.464 319.5 221.758 319.5 235.643C319.5 249.528 307.87 260.821 293.571 260.821Z" fill="#32E539"/>
</svg>
