<svg width="416" height="336" viewBox="0 0 416 336" fill="none" xmlns="http://www.w3.org/2000/svg">
<rect width="416" height="336" fill="#F2F2F2"/>
<path d="M278 148.554H273L239.006 107.289C237.132 105.015 234.755 103.179 232.052 101.917C229.348 100.656 226.387 100 223.387 100H156.541C148.363 100 141.009 104.834 137.972 112.208L123 149.24C114.388 151.406 108 158.935 108 167.975V201.963C108 204.645 110.237 206.818 113 206.818H128C128 222.908 141.431 235.95 158 235.95C174.569 235.95 188 222.908 188 206.818H228C228 222.908 241.431 235.95 258 235.95C274.569 235.95 288 222.908 288 206.818H303C305.763 206.818 308 204.645 308 201.963V177.686C308 161.596 294.569 148.554 278 148.554ZM158 221.384C149.728 221.384 143 214.851 143 206.818C143 198.786 149.728 192.252 158 192.252C166.272 192.252 173 198.786 173 206.818C173 214.851 166.272 221.384 158 221.384ZM180.5 148.554H144.541L156.541 119.421H180.5V148.554ZM195.5 148.554V119.421H223.387L247.388 148.554H195.5ZM258 221.384C249.728 221.384 243 214.851 243 206.818C243 198.786 249.728 192.252 258 192.252C266.272 192.252 273 198.786 273 206.818C273 214.851 266.272 221.384 258 221.384Z" fill="#24BE2A"/>
</svg>
