<?xml version="1.0" encoding="utf-8"?>
<!-- Generator: Adobe Illustrator 23.0.3, SVG Export Plug-In . SVG Version: 6.00 Build 0)  -->
<svg class="w-10 h-10" version="1.1" id="Icons" xmlns="http://www.w3.org/2000/svg" xmlns:xlink="http://www.w3.org/1999/xlink" x="0px" y="0px" viewBox="0 0 32 32" style="enable-background:new 0 0 32 32;" xml:space="preserve">
                <style type="text/css">
                    .st0 {
                        fill: white;
                        stroke: #000000;
                        stroke-width: 2;
                        stroke-linecap: round;
                        stroke-linejoin: round;
                        stroke-miterlimit: 10;
                    }

                    .st1 {
                        fill: none;
                        stroke: #000000;
                        stroke-width: 2;
                        stroke-linejoin: round;
                        stroke-miterlimit: 10;
                    }
                </style>
                <path class="st0" d="M27,23H5c-1.1,0-2-0.9-2-2v-4c0-2.2,1.8-4,4-4h18c2.2,0,4,1.8,4,4v4C29,22.1,28.1,23,27,23z" />
                <path class="st0" d="M26,13H6l2-4.6C8.6,7,10,6,11.6,6h8.7c1.6,0,3,1,3.7,2.4L26,13z" />
                <path class="st0" d="M10,23H4v2c0,1.1,0.9,2,2,2h2c1.1,0,2-0.9,2-2V23z" />
                <path class="st0" d="M28,23h-6v2c0,1.1,0.9,2,2,2h2c1.1,0,2-0.9,2-2V23z" />
                <line class="st0" x1="3" y1="12" x2="6.4" y2="12" />
                <line class="st0" x1="26" y1="12" x2="29" y2="12" />
                <path class="st0" d="M21,23H11l1.4-2.9c0.3-0.7,1-1.1,1.8-1.1h3.5c0.8,0,1.5,0.4,1.8,1.1L21,23z" />
                <line class="st0" x1="6" y1="18" x2="9" y2="18" />
                <line class="st0" x1="23" y1="18" x2="26" y2="18" />
            </svg>