<?xml version="1.0" encoding="UTF-8" standalone="no"?>         
<svg class="w-8 h-8 fill-white border-white" viewBox="0 0 101 101" fill="white" xmlns="http://www.w3.org/2000/svg">
<path d="M47.307 55.3222C51.994 55.3222 56.495 56.3442 60.685 58.3592C61.434 58.7192 62.33 58.4042 62.687 57.6572C63.046 56.9102 62.732 56.0142 61.986 55.6562C57.386 53.4442 52.448 52.3232 47.307 52.3232C28.604 52.3232 13.387 67.5382 13.387 86.2412C13.387 87.0702 14.059 87.7412 14.887 87.7412H44.824C45.652 87.7412 46.324 87.0702 46.324 86.2412C46.324 85.4122 45.652 84.7412 44.824 84.7412H16.424C17.207 68.3852 30.76 55.3222 47.307 55.3222Z" fill="black" stroke="black" stroke-width="2.2"/>
<path d="M28.16 23.6101C27.524 25.5631 27.186 27.5961 27.186 29.6681C27.186 40.4521 35.957 49.2251 46.738 49.2251C57.523 49.2251 66.298 40.4521 66.298 29.6681C66.298 27.5501 65.951 25.4731 65.287 23.4831L68.041 17.4611C68.359 16.7641 68.102 15.9391 67.442 15.5471L47.507 3.70707C47.036 3.42707 46.446 3.42707 45.976 3.70707L26.041 15.5471C25.388 15.9351 25.128 16.7491 25.435 17.4431L28.16 23.6101ZM46.738 46.2251C37.611 46.2251 30.186 38.7971 30.186 29.6681C30.186 28.3271 30.356 27.0061 30.671 25.7191C30.723 25.7241 30.771 25.7401 30.824 25.7401H62.821C63.132 27.0201 63.298 28.3341 63.298 29.6681C63.297 38.7971 55.868 46.2251 46.738 46.2251ZM46.741 6.74207L64.751 17.4391L62.326 22.7401H31.055L28.716 17.4481L46.741 6.74207Z" fill="black" stroke="black" stroke-width="2.2"/>
<path d="M78.806 67.0824C75.11 64.7714 70.735 64.0384 66.487 65.0184C62.24 65.9974 58.628 68.5734 56.316 72.2684C54.004 75.9634 53.271 80.3364 54.251 84.5834C55.23 88.8304 57.805 92.4424 61.501 94.7534C64.186 96.4324 67.174 97.2324 70.129 97.2324C75.571 97.2324 80.898 94.5174 83.988 89.5744C88.759 81.9434 86.435 71.8544 78.806 67.0824ZM58.859 73.8594C60.746 70.8424 63.694 68.7404 67.162 67.9414C68.165 67.7104 69.177 67.5954 70.181 67.5954C72.649 67.5954 75.073 68.2854 77.215 69.6264C77.216 69.6264 77.216 69.6264 77.216 69.6264C80.58 71.7304 82.666 75.1034 83.273 78.7394H57.008C57.29 77.0294 57.911 75.3744 58.859 73.8594ZM57.173 83.9104C57.007 83.1894 56.916 82.4644 56.869 81.7404H68.323V94.1004C66.517 93.8524 64.733 93.2384 63.09 92.2104C60.074 90.3244 57.973 87.3764 57.173 83.9104ZM81.445 87.9844C79.148 91.6564 75.339 93.8074 71.324 94.1664V81.7404H83.444C83.315 83.8884 82.664 86.0344 81.445 87.9844Z" fill="black" stroke="black" stroke-width="2.2"/>
</svg>
