<svg width="778" height="336" viewBox="0 0 778 336" fill="none" xmlns="http://www.w3.org/2000/svg">
<rect width="778" height="336" fill="#F2F2F2"/>
<path d="M311.678 143V89.1818H323.056V111.387H346.155V89.1818H357.507V143H346.155V120.768H323.056V143H311.678ZM378.188 143.762C375.613 143.762 373.318 143.315 371.303 142.422C369.289 141.511 367.694 140.171 366.521 138.401C365.364 136.614 364.786 134.389 364.786 131.727C364.786 129.484 365.198 127.601 366.021 126.077C366.845 124.553 367.966 123.326 369.385 122.398C370.804 121.469 372.416 120.768 374.22 120.295C376.042 119.822 377.952 119.49 379.949 119.297C382.296 119.052 384.188 118.824 385.625 118.614C387.062 118.386 388.104 118.053 388.752 117.615C389.4 117.177 389.724 116.529 389.724 115.67V115.513C389.724 113.848 389.199 112.561 388.148 111.65C387.114 110.739 385.643 110.283 383.733 110.283C381.718 110.283 380.115 110.73 378.924 111.624C377.733 112.5 376.944 113.603 376.559 114.935L366.205 114.094C366.731 111.641 367.764 109.521 369.306 107.734C370.848 105.93 372.836 104.546 375.271 103.582C377.724 102.601 380.562 102.111 383.786 102.111C386.028 102.111 388.174 102.374 390.224 102.899C392.291 103.425 394.122 104.239 395.716 105.343C397.328 106.447 398.598 107.866 399.526 109.6C400.455 111.317 400.919 113.375 400.919 115.776V143H390.303V137.403H389.987C389.339 138.664 388.472 139.777 387.386 140.74C386.299 141.686 384.994 142.431 383.47 142.974C381.946 143.499 380.185 143.762 378.188 143.762ZM381.394 136.036C383.041 136.036 384.495 135.712 385.756 135.064C387.018 134.398 388.008 133.505 388.726 132.384C389.444 131.262 389.803 129.992 389.803 128.573V124.29C389.453 124.518 388.971 124.728 388.358 124.92C387.762 125.096 387.088 125.262 386.335 125.42C385.581 125.56 384.828 125.691 384.075 125.814C383.321 125.919 382.638 126.015 382.025 126.103C380.711 126.296 379.563 126.602 378.582 127.023C377.601 127.443 376.839 128.013 376.296 128.731C375.753 129.432 375.482 130.308 375.482 131.359C375.482 132.883 376.033 134.048 377.137 134.854C378.258 135.642 379.677 136.036 381.394 136.036ZM409.604 143V102.636H420.457V109.679H420.877C421.613 107.174 422.848 105.282 424.583 104.003C426.317 102.706 428.314 102.058 430.574 102.058C431.135 102.058 431.739 102.093 432.387 102.163C433.036 102.233 433.605 102.33 434.096 102.452V112.386C433.57 112.228 432.843 112.088 431.914 111.965C430.986 111.843 430.136 111.781 429.365 111.781C427.719 111.781 426.247 112.14 424.951 112.859C423.672 113.559 422.656 114.54 421.902 115.802C421.167 117.063 420.799 118.517 420.799 120.164V143H409.604ZM456.189 158.977C452.563 158.977 449.453 158.478 446.86 157.479C444.285 156.498 442.235 155.158 440.711 153.459C439.187 151.759 438.197 149.85 437.742 147.73L448.095 146.337C448.411 147.143 448.91 147.897 449.593 148.597C450.276 149.298 451.179 149.859 452.3 150.279C453.439 150.717 454.823 150.936 456.452 150.936C458.887 150.936 460.893 150.34 462.47 149.149C464.064 147.975 464.861 146.004 464.861 143.237V135.852H464.388C463.897 136.973 463.162 138.033 462.181 139.032C461.2 140.031 459.938 140.845 458.396 141.476C456.855 142.107 455.015 142.422 452.878 142.422C449.847 142.422 447.088 141.721 444.6 140.32C442.13 138.901 440.159 136.737 438.688 133.829C437.234 130.903 436.507 127.207 436.507 122.739C436.507 118.167 437.251 114.348 438.74 111.282C440.229 108.216 442.209 105.921 444.679 104.397C447.167 102.873 449.891 102.111 452.852 102.111C455.112 102.111 457.004 102.496 458.528 103.267C460.052 104.02 461.278 104.966 462.207 106.105C463.153 107.226 463.88 108.33 464.388 109.416H464.808V102.636H475.924V143.394C475.924 146.828 475.083 149.701 473.401 152.013C471.72 154.326 469.39 156.06 466.411 157.217C463.451 158.39 460.043 158.977 456.189 158.977ZM456.426 134.013C458.23 134.013 459.754 133.566 460.998 132.673C462.259 131.762 463.223 130.465 463.889 128.783C464.572 127.084 464.914 125.052 464.914 122.687C464.914 120.322 464.581 118.272 463.915 116.538C463.249 114.786 462.286 113.428 461.024 112.464C459.763 111.501 458.23 111.019 456.426 111.019C454.586 111.019 453.036 111.518 451.774 112.517C450.513 113.498 449.558 114.865 448.91 116.616C448.262 118.368 447.938 120.392 447.938 122.687C447.938 125.017 448.262 127.031 448.91 128.731C449.576 130.413 450.53 131.718 451.774 132.646C453.036 133.557 454.586 134.013 456.426 134.013ZM496.343 143.762C493.767 143.762 491.472 143.315 489.458 142.422C487.443 141.511 485.849 140.171 484.675 138.401C483.519 136.614 482.941 134.389 482.941 131.727C482.941 129.484 483.352 127.601 484.176 126.077C484.999 124.553 486.12 123.326 487.539 122.398C488.958 121.469 490.57 120.768 492.374 120.295C494.196 119.822 496.106 119.49 498.103 119.297C500.451 119.052 502.343 118.824 503.779 118.614C505.216 118.386 506.258 118.053 506.906 117.615C507.555 117.177 507.879 116.529 507.879 115.67V115.513C507.879 113.848 507.353 112.561 506.302 111.65C505.268 110.739 503.797 110.283 501.887 110.283C499.873 110.283 498.27 110.73 497.078 111.624C495.887 112.5 495.099 113.603 494.713 114.935L484.36 114.094C484.885 111.641 485.919 109.521 487.46 107.734C489.002 105.93 490.99 104.546 493.426 103.582C495.878 102.601 498.716 102.111 501.94 102.111C504.182 102.111 506.328 102.374 508.378 102.899C510.445 103.425 512.276 104.239 513.87 105.343C515.482 106.447 516.752 107.866 517.681 109.6C518.609 111.317 519.073 113.375 519.073 115.776V143H508.457V137.403H508.142C507.493 138.664 506.626 139.777 505.54 140.74C504.454 141.686 503.149 142.431 501.624 142.974C500.1 143.499 498.34 143.762 496.343 143.762ZM499.548 136.036C501.195 136.036 502.649 135.712 503.911 135.064C505.172 134.398 506.162 133.505 506.88 132.384C507.598 131.262 507.958 129.992 507.958 128.573V124.29C507.607 124.518 507.125 124.728 506.512 124.92C505.917 125.096 505.242 125.262 504.489 125.42C503.736 125.56 502.982 125.691 502.229 125.814C501.476 125.919 500.792 126.015 500.179 126.103C498.865 126.296 497.718 126.602 496.737 127.023C495.756 127.443 494.994 128.013 494.45 128.731C493.907 129.432 493.636 130.308 493.636 131.359C493.636 132.883 494.188 134.048 495.291 134.854C496.413 135.642 497.832 136.036 499.548 136.036ZM309.628 188.563V179.182H353.828V188.563H337.352V233H326.104V188.563H309.628ZM373.438 233.788C369.286 233.788 365.713 232.947 362.717 231.266C359.739 229.566 357.444 227.166 355.832 224.065C354.22 220.947 353.414 217.259 353.414 213.002C353.414 208.85 354.22 205.206 355.832 202.07C357.444 198.934 359.712 196.491 362.638 194.739C365.581 192.987 369.032 192.111 372.992 192.111C375.655 192.111 378.133 192.54 380.428 193.398C382.741 194.239 384.756 195.509 386.472 197.209C388.207 198.908 389.556 201.045 390.519 203.621C391.483 206.179 391.965 209.174 391.965 212.608V215.683H357.882V208.745H381.427C381.427 207.133 381.077 205.705 380.376 204.462C379.675 203.218 378.703 202.246 377.459 201.545C376.233 200.826 374.805 200.467 373.176 200.467C371.476 200.467 369.97 200.862 368.656 201.65C367.359 202.421 366.343 203.463 365.607 204.777C364.872 206.073 364.495 207.519 364.477 209.113V215.709C364.477 217.706 364.845 219.432 365.581 220.886C366.334 222.34 367.394 223.461 368.761 224.249C370.127 225.038 371.748 225.432 373.622 225.432C374.866 225.432 376.005 225.257 377.039 224.906C378.072 224.556 378.957 224.03 379.693 223.33C380.428 222.629 380.989 221.77 381.374 220.754L391.728 221.438C391.203 223.925 390.125 226.098 388.496 227.955C386.884 229.794 384.799 231.231 382.242 232.264C379.701 233.28 376.767 233.788 373.438 233.788ZM399.27 233V192.636H410.123V199.679H410.544C411.279 197.174 412.514 195.282 414.249 194.003C415.983 192.706 417.98 192.058 420.24 192.058C420.801 192.058 421.405 192.093 422.053 192.163C422.702 192.233 423.271 192.33 423.762 192.452V202.386C423.236 202.228 422.509 202.088 421.58 201.965C420.652 201.843 419.802 201.781 419.031 201.781C417.385 201.781 415.913 202.14 414.617 202.859C413.338 203.559 412.322 204.54 411.568 205.802C410.833 207.063 410.465 208.517 410.465 210.164V233H399.27ZM429.549 192.636H440.744V234.997C440.744 238.116 440.131 240.638 438.904 242.565C437.678 244.492 435.917 245.903 433.623 246.796C431.345 247.69 428.621 248.136 425.45 248.136C425.065 248.136 424.697 248.128 424.346 248.11C423.978 248.11 423.593 248.101 423.19 248.084V239.333C423.488 239.351 423.751 239.359 423.978 239.359C424.189 239.377 424.416 239.386 424.662 239.386C426.466 239.386 427.727 239 428.446 238.229C429.181 237.476 429.549 236.337 429.549 234.813V192.636ZM435.12 187.433C433.474 187.433 432.055 186.881 430.863 185.778C429.672 184.656 429.076 183.316 429.076 181.757C429.076 180.215 429.672 178.893 430.863 177.789C432.055 176.668 433.474 176.107 435.12 176.107C436.802 176.107 438.23 176.668 439.404 177.789C440.595 178.893 441.191 180.215 441.191 181.757C441.191 183.316 440.595 184.656 439.404 185.778C438.23 186.881 436.802 187.433 435.12 187.433ZM461.221 233.762C458.646 233.762 456.351 233.315 454.336 232.422C452.322 231.511 450.728 230.171 449.554 228.401C448.398 226.614 447.819 224.389 447.819 221.727C447.819 219.484 448.231 217.601 449.055 216.077C449.878 214.553 450.999 213.326 452.418 212.398C453.837 211.469 455.449 210.768 457.253 210.295C459.075 209.822 460.985 209.49 462.982 209.297C465.33 209.052 467.222 208.824 468.658 208.614C470.095 208.386 471.137 208.053 471.785 207.615C472.434 207.177 472.758 206.529 472.758 205.67V205.513C472.758 203.848 472.232 202.561 471.181 201.65C470.147 200.739 468.676 200.283 466.766 200.283C464.751 200.283 463.148 200.73 461.957 201.624C460.766 202.5 459.978 203.603 459.592 204.935L449.238 204.094C449.764 201.641 450.798 199.521 452.339 197.734C453.881 195.93 455.869 194.546 458.305 193.582C460.757 192.601 463.595 192.111 466.819 192.111C469.061 192.111 471.207 192.374 473.257 192.899C475.324 193.425 477.155 194.239 478.749 195.343C480.361 196.447 481.631 197.866 482.559 199.6C483.488 201.317 483.952 203.375 483.952 205.776V233H473.336V227.403H473.02C472.372 228.664 471.505 229.777 470.419 230.74C469.333 231.686 468.028 232.431 466.503 232.974C464.979 233.499 463.219 233.762 461.221 233.762ZM464.427 226.036C466.074 226.036 467.528 225.712 468.79 225.064C470.051 224.398 471.041 223.505 471.759 222.384C472.477 221.262 472.836 219.992 472.836 218.573V214.29C472.486 214.518 472.004 214.728 471.391 214.92C470.796 215.096 470.121 215.262 469.368 215.42C468.614 215.56 467.861 215.691 467.108 215.814C466.354 215.919 465.671 216.015 465.058 216.103C463.744 216.296 462.597 216.602 461.616 217.023C460.635 217.443 459.872 218.013 459.329 218.731C458.786 219.432 458.515 220.308 458.515 221.359C458.515 222.883 459.067 224.048 460.17 224.854C461.291 225.642 462.711 226.036 464.427 226.036ZM503.832 209.665V233H492.637V192.636H503.306V199.758H503.779C504.673 197.41 506.171 195.553 508.273 194.187C510.375 192.803 512.924 192.111 515.92 192.111C518.723 192.111 521.167 192.724 523.252 193.95C525.336 195.177 526.957 196.929 528.113 199.206C529.269 201.466 529.847 204.164 529.847 207.3V233H518.653V209.297C518.67 206.827 518.04 204.9 516.761 203.516C515.482 202.114 513.721 201.413 511.479 201.413C509.972 201.413 508.641 201.737 507.485 202.386C506.346 203.034 505.452 203.98 504.804 205.224C504.173 206.45 503.849 207.93 503.832 209.665ZM556.855 248.977C553.229 248.977 550.119 248.478 547.526 247.479C544.951 246.498 542.901 245.158 541.377 243.459C539.853 241.759 538.863 239.85 538.408 237.73L548.761 236.337C549.077 237.143 549.576 237.897 550.259 238.597C550.942 239.298 551.845 239.859 552.966 240.279C554.105 240.717 555.489 240.936 557.118 240.936C559.553 240.936 561.559 240.34 563.136 239.149C564.73 237.975 565.527 236.004 565.527 233.237V225.852H565.054C564.563 226.973 563.828 228.033 562.847 229.032C561.866 230.031 560.604 230.845 559.062 231.476C557.521 232.107 555.681 232.422 553.544 232.422C550.513 232.422 547.754 231.721 545.266 230.32C542.796 228.901 540.825 226.737 539.354 223.829C537.9 220.903 537.173 217.207 537.173 212.739C537.173 208.167 537.917 204.348 539.406 201.282C540.895 198.216 542.875 195.921 545.345 194.397C547.833 192.873 550.557 192.111 553.518 192.111C555.778 192.111 557.67 192.496 559.194 193.267C560.718 194.02 561.944 194.966 562.873 196.105C563.819 197.226 564.546 198.33 565.054 199.416H565.474V192.636H576.59V233.394C576.59 236.828 575.749 239.701 574.067 242.013C572.386 244.326 570.056 246.06 567.077 247.217C564.117 248.39 560.709 248.977 556.855 248.977ZM557.092 224.013C558.896 224.013 560.42 223.566 561.664 222.673C562.925 221.762 563.889 220.465 564.555 218.783C565.238 217.084 565.58 215.052 565.58 212.687C565.58 210.322 565.247 208.272 564.581 206.538C563.915 204.786 562.952 203.428 561.69 202.464C560.429 201.501 558.896 201.019 557.092 201.019C555.252 201.019 553.702 201.518 552.44 202.517C551.179 203.498 550.224 204.865 549.576 206.616C548.928 208.368 548.604 210.392 548.604 212.687C548.604 215.017 548.928 217.031 549.576 218.731C550.242 220.413 551.196 221.718 552.44 222.646C553.702 223.557 555.252 224.013 557.092 224.013ZM595.642 221.385L595.668 207.957H597.298L610.227 192.636H623.077L605.707 212.923H603.053L595.642 221.385ZM585.499 233V179.182H596.693V233H585.499ZM610.726 233L598.848 215.42L606.311 207.51L623.839 233H610.726ZM640.079 233.762C637.504 233.762 635.209 233.315 633.194 232.422C631.179 231.511 629.585 230.171 628.411 228.401C627.255 226.614 626.677 224.389 626.677 221.727C626.677 219.484 627.089 217.601 627.912 216.077C628.735 214.553 629.857 213.326 631.276 212.398C632.695 211.469 634.306 210.768 636.111 210.295C637.933 209.822 639.842 209.49 641.839 209.297C644.187 209.052 646.079 208.824 647.516 208.614C648.952 208.386 649.995 208.053 650.643 207.615C651.291 207.177 651.615 206.529 651.615 205.67V205.513C651.615 203.848 651.089 202.561 650.038 201.65C649.005 200.739 647.533 200.283 645.624 200.283C643.609 200.283 642.006 200.73 640.815 201.624C639.623 202.5 638.835 203.603 638.45 204.935L628.096 204.094C628.621 201.641 629.655 199.521 631.197 197.734C632.738 195.93 634.727 194.546 637.162 193.582C639.615 192.601 642.453 192.111 645.676 192.111C647.919 192.111 650.065 192.374 652.114 192.899C654.182 193.425 656.012 194.239 657.607 195.343C659.218 196.447 660.488 197.866 661.417 199.6C662.345 201.317 662.81 203.375 662.81 205.776V233H652.193V227.403H651.878C651.23 228.664 650.362 229.777 649.276 230.74C648.19 231.686 646.885 232.431 645.361 232.974C643.837 233.499 642.076 233.762 640.079 233.762ZM643.285 226.036C644.932 226.036 646.386 225.712 647.647 225.064C648.908 224.398 649.898 223.505 650.616 222.384C651.335 221.262 651.694 219.992 651.694 218.573V214.29C651.344 214.518 650.862 214.728 650.249 214.92C649.653 215.096 648.978 215.262 648.225 215.42C647.472 215.56 646.719 215.691 645.965 215.814C645.212 215.919 644.529 216.015 643.915 216.103C642.602 216.296 641.454 216.602 640.473 217.023C639.492 217.443 638.73 218.013 638.187 218.731C637.644 219.432 637.372 220.308 637.372 221.359C637.372 222.883 637.924 224.048 639.028 224.854C640.149 225.642 641.568 226.036 643.285 226.036ZM697.379 215.814V192.636H708.574V233H697.826V225.668H697.405C696.494 228.033 694.979 229.934 692.859 231.371C690.757 232.807 688.19 233.526 685.159 233.526C682.462 233.526 680.088 232.912 678.038 231.686C675.988 230.46 674.385 228.717 673.229 226.457C672.09 224.197 671.512 221.49 671.495 218.337V192.636H682.689V216.339C682.707 218.722 683.346 220.605 684.608 221.989C685.869 223.373 687.56 224.065 689.679 224.065C691.028 224.065 692.29 223.759 693.463 223.146C694.637 222.515 695.583 221.586 696.301 220.36C697.037 219.134 697.396 217.618 697.379 215.814Z" fill="#313866"/>
<path d="M170.175 126.522L188.83 132.024C189.463 132.19 190.03 132.585 190.442 133.149C190.854 133.712 191.089 134.412 191.109 135.14C191.109 136.91 189.703 138.372 187.974 138.372H175.737C174.418 138.368 173.112 138.081 171.89 137.526C170.089 136.679 168.013 136.872 166.631 138.296L160.1 145.029C159.798 145.325 159.537 145.67 159.326 146.052C159.057 146.547 158.877 147.097 158.798 147.67C158.719 148.243 158.743 148.828 158.867 149.391C158.991 149.954 159.213 150.484 159.521 150.951C159.829 151.417 160.216 151.811 160.66 152.109C164.277 154.538 168.327 156.049 172.523 156.533V163.344C172.523 166.73 175.214 169.5 178.493 169.5H184.464C187.747 169.5 190.438 166.73 190.438 163.344V156.572C201.758 155.187 210.321 144.644 208.829 132.332C207.746 123.482 201.108 116.441 192.824 113.978L174.169 108.476C173.536 108.31 172.969 107.915 172.557 107.351C172.144 106.788 171.91 106.088 171.89 105.36C171.89 103.59 173.296 102.128 175.025 102.128H187.262C188.586 102.13 189.896 102.417 191.123 102.974C192.92 103.821 195 103.628 196.382 102.204L202.913 95.4711C203.205 95.1814 203.456 94.8442 203.659 94.4707C203.931 93.9758 204.112 93.4255 204.193 92.8515C204.274 92.2776 204.252 91.6914 204.13 91.1269C204.007 90.5623 203.786 90.0306 203.478 89.5624C203.171 89.0942 202.784 88.6988 202.339 88.3991C198.721 85.9694 194.67 84.4589 190.473 83.9743V77.1562C190.473 73.7703 187.785 71 184.502 71H178.531C175.249 71 172.56 73.7703 172.56 77.1562V83.9281C161.255 85.3133 152.675 95.8559 154.167 108.168C155.246 117.018 161.904 124.059 170.175 126.522ZM271.307 197.242C267.251 193.125 260.926 193.394 256.664 197.242L224.902 225.676C221.003 229.177 216.151 231.078 211.152 231.062H170.498C169.039 231.062 167.64 230.414 166.609 229.259C165.578 228.105 164.998 226.539 164.998 224.906C164.998 223.274 165.578 221.708 166.609 220.553C167.64 219.399 169.039 218.75 170.498 218.75H197.41C202.875 218.75 207.966 214.556 208.839 208.515C208.947 207.822 209 207.119 208.997 206.414C208.992 203.153 207.83 200.027 205.768 197.723C203.706 195.419 200.911 194.125 197.997 194.125H142.999C133.723 194.128 124.73 197.699 117.527 204.24L101.543 218.75H82.4999C81.0412 218.75 79.6423 219.399 78.6109 220.553C77.5795 221.708 77 223.274 77 224.906V261.844C77 263.476 77.5795 265.042 78.6109 266.197C79.6423 267.351 81.0412 268 82.4999 268H205.137C210.134 268.004 214.983 266.105 218.887 262.613L270.871 216.057C272.121 214.937 273.138 213.525 273.851 211.92C274.563 210.315 274.954 208.555 274.996 206.764C275.038 204.972 274.73 203.191 274.093 201.547C273.457 199.902 272.507 198.433 271.311 197.242H271.307Z" fill="#931515"/>
</svg>
