<?xml version="1.0" encoding="iso-8859-1"?>
<!-- Generator: Adobe Illustrator 19.0.0, SVG Export Plug-In . SVG Version: 6.00 Build 0)  -->
<svg version="1.1" class="w-8 h-8 fill-white" id="Capa_1" xmlns="http://www.w3.org/2000/svg" xmlns:xlink="http://www.w3.org/1999/xlink" x="0px" y="0px"
	 viewBox="0 0 512.001 512.001" style="enable-background:new 0 0 512.001 512.001;" xml:space="preserve">
<g>
	<g>
		<path d="M509.071,194.93L496,181.86V76.411c0-42.129-34.274-76.403-76.403-76.403c-17.334,0-33.33,5.811-46.164,15.575
			c-56.567-27.773-126.989-18.172-173.972,28.81c-50.315,50.316-57.75,127.511-22.326,185.784l-57.292,57.292H95.641
			c-5.522,0-10,4.477-10,10v18.346H67.294c-5.522,0-10,4.477-10,10v18.346H38.949c-5.522,0-10,4.477-10,10v18.346H10.604
			c-2.652,0-5.195,1.054-7.071,2.929l-0.604,0.604C1.054,377.913,0,380.457,0,383.109v64.886c0,5.523,4.478,10,10,10h66.095
			c2.652,0,5.195-1.054,7.071-2.929l110.309-110.309c3.905-3.905,3.905-10.237,0-14.143c-3.906-3.905-10.236-3.905-14.143,0
			L71.952,437.996H20v-45.492h18.95c5.522,0,10-4.477,10-10v-18.346h18.346c5.522,0,10-4.477,10-10v-18.346h18.347
			c5.522,0,10-4.477,10-10v-18.346h18.346c2.652,0,5.195-1.054,7.071-2.929l57.765-57.764c3.305,4.078,6.85,8.025,10.642,11.817
			c27.056,27.056,62.548,42.607,100.543,44.215v167.187c0,23.158,18.841,41.999,41.999,41.999h127.997
			c23.158,0,41.999-18.841,41.999-41.999V202C512,199.349,510.946,196.806,509.071,194.93z M419.596,20.007
			C450.697,20.007,476,45.309,476,76.41v85.449l-17.982-17.982c-0.088-0.088-0.183-0.163-0.273-0.247
			c-1.861-36.125-16.552-71.707-44.083-99.24c-6.576-6.575-13.613-12.414-21.004-17.525
			C400.668,22.495,409.846,20.007,419.596,20.007z M363.191,104.815V82.74c2.604,1.171,5.053,2.798,7.188,4.934
			c4.579,4.579,7.102,10.666,7.102,17.141s-2.522,12.563-7.102,17.142c-9.45,9.452-24.829,9.453-34.281,0
			c-9.452-9.452-9.452-24.831,0-34.282c2.11-2.11,4.525-3.722,7.094-4.89v22.031c0,5.523,4.478,10,10,10
			S363.191,110.337,363.191,104.815z M306.56,282.892c-33.66-0.003-67.332-12.818-92.958-38.443
			c-51.255-51.256-51.255-134.658,0.001-185.915c24.83-24.83,57.844-38.505,92.959-38.505c18.141,0,35.716,3.659,51.897,10.61
			c-6.718,8.95-11.513,19.419-13.783,30.788c-8.331,1.631-16.28,5.664-22.72,12.104c-17.249,17.25-17.249,45.316,0,62.566
			c8.626,8.625,19.953,12.937,31.283,12.937c11.327,0,22.658-4.313,31.282-12.937c8.356-8.356,12.959-19.467,12.959-31.283
			c0-11.817-4.603-22.927-12.959-31.283c-5.608-5.608-12.361-9.38-19.512-11.341c2.149-8.244,6.126-15.753,11.463-22.082
			c8.251,5.201,15.981,11.361,23.046,18.427c24.83,24.83,38.505,57.843,38.505,92.958s-13.675,68.128-38.505,92.958
			C373.887,270.082,340.229,282.895,306.56,282.892z M492,469.995c0,12.131-9.869,22-21.999,22H342.004c-12.131,0-22-9.869-22-22
			V302.359c35.384-3.092,68.242-18.352,93.658-43.767c24.603-24.603,38.946-55.635,43.05-87.737L492,206.142V469.995z"/>
	</g>
</g>
<g>
	<g>
		<path d="M255.645,100.578c3.907-3.905,3.907-10.237,0.001-14.142c-3.906-3.905-10.236-3.905-14.143,0
			c-35.872,35.873-35.872,94.242,0,130.114c1.953,1.953,4.512,2.929,7.071,2.929s5.118-0.977,7.071-2.929
			c3.905-3.905,3.905-10.237,0-14.142C227.571,174.333,227.571,128.652,255.645,100.578z"/>
	</g>
</g>
<g>
	<g>
		<path d="M287.437,221.012c-0.029-0.008-0.143-0.04-0.172-0.048c-5.315-1.469-10.804,1.658-12.275,6.977
			c-1.473,5.315,1.657,10.825,6.97,12.307c0.913,0.259,1.831,0.382,2.735,0.382c4.352,0,8.355-2.863,9.61-7.255
			C295.823,228.064,292.748,222.529,287.437,221.012z"/>
	</g>
</g>
<g>
	<g>
		<path d="M448.501,437.996h-84.998c-5.522,0-10,4.477-10,10c0,5.523,4.478,10,10,10h84.998c5.522,0,10-4.477,10-10
			C458.501,442.473,454.023,437.996,448.501,437.996z"/>
	</g>
</g>
<g>
	<g>
		<path d="M219.116,304.97c-1.859-1.86-4.439-2.93-7.069-2.93s-5.21,1.07-7.07,2.93c-1.86,1.86-2.93,4.44-2.93,7.07
			s1.069,5.21,2.93,7.07c1.861,1.86,4.44,2.93,7.07,2.93c2.64,0,5.21-1.07,7.069-2.93c1.87-1.86,2.931-4.44,2.931-7.07
			S220.986,306.83,219.116,304.97z"/>
	</g>
</g>
<g>
</g>
<g>
</g>
<g>
</g>
<g>
</g>
<g>
</g>
<g>
</g>
<g>
</g>
<g>
</g>
<g>
</g>
<g>
</g>
<g>
</g>
<g>
</g>
<g>
</g>
<g>
</g>
<g>
</g>
</svg>
