<svg width="910" height="336" viewBox="0 0 910 336" fill="none" xmlns="http://www.w3.org/2000/svg">
<rect width="910" height="336" fill="#F5EDED"/>
<path d="M427.678 143V89.1818H448.911C452.992 89.1818 456.47 89.9614 459.343 91.5206C462.216 93.0623 464.406 95.2083 465.913 97.9588C467.437 100.692 468.199 103.845 468.199 107.419C468.199 110.993 467.428 114.146 465.886 116.879C464.345 119.612 462.111 121.741 459.185 123.265C456.277 124.789 452.756 125.551 448.621 125.551H435.088V116.433H446.782C448.972 116.433 450.776 116.056 452.195 115.303C453.632 114.532 454.701 113.472 455.401 112.123C456.12 110.756 456.479 109.188 456.479 107.419C456.479 105.632 456.12 104.073 455.401 102.741C454.701 101.393 453.632 100.35 452.195 99.6143C450.759 98.861 448.937 98.4844 446.729 98.4844H439.056V143H427.678ZM493.124 143.788C488.972 143.788 485.398 142.947 482.402 141.266C479.424 139.566 477.129 137.166 475.517 134.065C473.906 130.947 473.1 127.259 473.1 123.002C473.1 118.85 473.906 115.206 475.517 112.07C477.129 108.934 479.398 106.491 482.324 104.739C485.267 102.987 488.718 102.111 492.677 102.111C495.34 102.111 497.819 102.54 500.114 103.398C502.426 104.239 504.441 105.509 506.158 107.209C507.892 108.908 509.241 111.045 510.205 113.621C511.168 116.179 511.65 119.174 511.65 122.608V125.683H477.567V118.745H501.113C501.113 117.133 500.762 115.705 500.061 114.462C499.361 113.218 498.388 112.246 497.145 111.545C495.918 110.826 494.49 110.467 492.861 110.467C491.162 110.467 489.655 110.862 488.341 111.65C487.045 112.421 486.029 113.463 485.293 114.777C484.557 116.073 484.181 117.519 484.163 119.113V125.709C484.163 127.706 484.531 129.432 485.267 130.886C486.02 132.34 487.08 133.461 488.446 134.249C489.813 135.038 491.433 135.432 493.308 135.432C494.552 135.432 495.69 135.257 496.724 134.906C497.758 134.556 498.642 134.03 499.378 133.33C500.114 132.629 500.675 131.77 501.06 130.754L511.414 131.438C510.888 133.925 509.811 136.098 508.181 137.955C506.57 139.794 504.485 141.231 501.927 142.264C499.387 143.28 496.453 143.788 493.124 143.788ZM530.15 89.1818V143H518.956V89.1818H530.15ZM550.628 143.762C548.052 143.762 545.757 143.315 543.743 142.422C541.728 141.511 540.134 140.171 538.96 138.401C537.804 136.614 537.226 134.389 537.226 131.727C537.226 129.484 537.637 127.601 538.461 126.077C539.284 124.553 540.405 123.326 541.824 122.398C543.243 121.469 544.855 120.768 546.66 120.295C548.482 119.822 550.391 119.49 552.388 119.297C554.736 119.052 556.628 118.824 558.064 118.614C559.501 118.386 560.543 118.053 561.192 117.615C561.84 117.177 562.164 116.529 562.164 115.67V115.513C562.164 113.848 561.638 112.561 560.587 111.65C559.554 110.739 558.082 110.283 556.172 110.283C554.158 110.283 552.555 110.73 551.363 111.624C550.172 112.5 549.384 113.603 548.998 114.935L538.645 114.094C539.17 111.641 540.204 109.521 541.746 107.734C543.287 105.93 545.276 104.546 547.711 103.582C550.163 102.601 553.001 102.111 556.225 102.111C558.467 102.111 560.613 102.374 562.663 102.899C564.73 103.425 566.561 104.239 568.155 105.343C569.767 106.447 571.037 107.866 571.966 109.6C572.894 111.317 573.358 113.375 573.358 115.776V143H562.742V137.403H562.427C561.778 138.664 560.911 139.777 559.825 140.74C558.739 141.686 557.434 142.431 555.91 142.974C554.385 143.499 552.625 143.762 550.628 143.762ZM553.834 136.036C555.48 136.036 556.934 135.712 558.196 135.064C559.457 134.398 560.447 133.505 561.165 132.384C561.884 131.262 562.243 129.992 562.243 128.573V124.29C561.892 124.518 561.411 124.728 560.797 124.92C560.202 125.096 559.527 125.262 558.774 125.42C558.021 125.56 557.267 125.691 556.514 125.814C555.761 125.919 555.077 126.015 554.464 126.103C553.15 126.296 552.003 126.602 551.022 127.023C550.041 127.443 549.279 128.013 548.736 128.731C548.193 129.432 547.921 130.308 547.921 131.359C547.921 132.883 548.473 134.048 549.577 134.854C550.698 135.642 552.117 136.036 553.834 136.036ZM587.509 158.136C586.09 158.136 584.759 158.022 583.515 157.795C582.289 157.585 581.273 157.313 580.467 156.98L582.99 148.624C584.303 149.027 585.486 149.246 586.537 149.281C587.606 149.316 588.526 149.07 589.296 148.545C590.085 148.019 590.724 147.126 591.215 145.864L591.872 144.156L577.392 102.636H589.165L597.521 132.278H597.942L606.377 102.636H618.229L602.541 147.362C601.787 149.535 600.762 151.427 599.466 153.038C598.187 154.668 596.567 155.92 594.605 156.796C592.642 157.69 590.277 158.136 587.509 158.136ZM634.384 143.762C631.808 143.762 629.513 143.315 627.499 142.422C625.484 141.511 623.89 140.171 622.716 138.401C621.56 136.614 620.982 134.389 620.982 131.727C620.982 129.484 621.393 127.601 622.217 126.077C623.04 124.553 624.161 123.326 625.58 122.398C626.999 121.469 628.611 120.768 630.415 120.295C632.237 119.822 634.147 119.49 636.144 119.297C638.492 119.052 640.384 118.824 641.82 118.614C643.257 118.386 644.299 118.053 644.947 117.615C645.596 117.177 645.92 116.529 645.92 115.67V115.513C645.92 113.848 645.394 112.561 644.343 111.65C643.309 110.739 641.838 110.283 639.928 110.283C637.914 110.283 636.311 110.73 635.119 111.624C633.928 112.5 633.14 113.603 632.754 114.935L622.401 114.094C622.926 111.641 623.96 109.521 625.501 107.734C627.043 105.93 629.031 104.546 631.467 103.582C633.919 102.601 636.757 102.111 639.981 102.111C642.223 102.111 644.369 102.374 646.419 102.899C648.486 103.425 650.317 104.239 651.911 105.343C653.523 106.447 654.793 107.866 655.722 109.6C656.65 111.317 657.114 113.375 657.114 115.776V143H646.498V137.403H646.183C645.534 138.664 644.667 139.777 643.581 140.74C642.495 141.686 641.19 142.431 639.665 142.974C638.141 143.499 636.381 143.762 634.384 143.762ZM637.589 136.036C639.236 136.036 640.69 135.712 641.952 135.064C643.213 134.398 644.203 133.505 644.921 132.384C645.639 131.262 645.999 129.992 645.999 128.573V124.29C645.648 124.518 645.166 124.728 644.553 124.92C643.958 125.096 643.283 125.262 642.53 125.42C641.777 125.56 641.023 125.691 640.27 125.814C639.517 125.919 638.833 126.015 638.22 126.103C636.906 126.296 635.759 126.602 634.778 127.023C633.797 127.443 633.035 128.013 632.491 128.731C631.948 129.432 631.677 130.308 631.677 131.359C631.677 132.883 632.229 134.048 633.332 134.854C634.454 135.642 635.873 136.036 637.589 136.036ZM676.994 119.665V143H665.799V102.636H676.468V109.758H676.941C677.835 107.41 679.333 105.553 681.435 104.187C683.537 102.803 686.086 102.111 689.082 102.111C691.885 102.111 694.329 102.724 696.414 103.95C698.498 105.177 700.119 106.929 701.275 109.206C702.431 111.466 703.01 114.164 703.01 117.3V143H691.815V119.297C691.833 116.827 691.202 114.9 689.923 113.516C688.644 112.114 686.883 111.413 684.641 111.413C683.134 111.413 681.803 111.737 680.647 112.386C679.508 113.034 678.614 113.98 677.966 115.224C677.336 116.45 677.011 117.93 676.994 119.665ZM723.343 143.762C720.767 143.762 718.472 143.315 716.458 142.422C714.443 141.511 712.849 140.171 711.675 138.401C710.519 136.614 709.941 134.389 709.941 131.727C709.941 129.484 710.352 127.601 711.176 126.077C711.999 124.553 713.12 123.326 714.539 122.398C715.958 121.469 717.57 120.768 719.374 120.295C721.196 119.822 723.106 119.49 725.103 119.297C727.451 119.052 729.343 118.824 730.779 118.614C732.216 118.386 733.258 118.053 733.906 117.615C734.555 117.177 734.879 116.529 734.879 115.67V115.513C734.879 113.848 734.353 112.561 733.302 111.65C732.268 110.739 730.797 110.283 728.887 110.283C726.873 110.283 725.27 110.73 724.078 111.624C722.887 112.5 722.099 113.603 721.713 114.935L711.36 114.094C711.885 111.641 712.919 109.521 714.46 107.734C716.002 105.93 717.99 104.546 720.426 103.582C722.878 102.601 725.716 102.111 728.94 102.111C731.182 102.111 733.328 102.374 735.378 102.899C737.445 103.425 739.276 104.239 740.87 105.343C742.482 106.447 743.752 107.866 744.681 109.6C745.609 111.317 746.073 113.375 746.073 115.776V143H735.457V137.403H735.142C734.493 138.664 733.626 139.777 732.54 140.74C731.454 141.686 730.149 142.431 728.624 142.974C727.1 143.499 725.34 143.762 723.343 143.762ZM726.548 136.036C728.195 136.036 729.649 135.712 730.911 135.064C732.172 134.398 733.162 133.505 733.88 132.384C734.598 131.262 734.958 129.992 734.958 128.573V124.29C734.607 124.518 734.125 124.728 733.512 124.92C732.917 125.096 732.242 125.262 731.489 125.42C730.736 125.56 729.982 125.691 729.229 125.814C728.476 125.919 727.792 126.015 727.179 126.103C725.865 126.296 724.718 126.602 723.737 127.023C722.756 127.443 721.994 128.013 721.45 128.731C720.907 129.432 720.636 130.308 720.636 131.359C720.636 132.883 721.188 134.048 722.291 134.854C723.413 135.642 724.832 136.036 726.548 136.036ZM765.953 119.665V143H754.758V102.636H765.427V109.758H765.9C766.794 107.41 768.292 105.553 770.394 104.187C772.496 102.803 775.045 102.111 778.041 102.111C780.844 102.111 783.288 102.724 785.373 103.95C787.457 105.177 789.078 106.929 790.234 109.206C791.39 111.466 791.969 114.164 791.969 117.3V143H780.774V119.297C780.791 116.827 780.161 114.9 778.882 113.516C777.603 112.114 775.842 111.413 773.6 111.413C772.093 111.413 770.762 111.737 769.606 112.386C768.467 113.034 767.573 113.98 766.925 115.224C766.295 116.45 765.97 117.93 765.953 119.665ZM427.678 233V179.182H448.911C452.975 179.182 456.444 179.909 459.317 181.363C462.207 182.799 464.406 184.84 465.913 187.486C467.437 190.114 468.199 193.206 468.199 196.762C468.199 200.336 467.428 203.411 465.886 205.986C464.345 208.544 462.111 210.506 459.185 211.872C456.277 213.239 452.756 213.922 448.621 213.922H434.405V204.777H446.782C448.954 204.777 450.759 204.479 452.195 203.884C453.632 203.288 454.701 202.394 455.401 201.203C456.12 200.012 456.479 198.531 456.479 196.762C456.479 194.975 456.12 193.469 455.401 192.242C454.701 191.016 453.623 190.087 452.169 189.457C450.732 188.808 448.919 188.484 446.729 188.484H439.056V233H427.678ZM456.741 208.509L470.117 233H457.556L444.469 208.509H456.741ZM487.54 233.762C484.964 233.762 482.67 233.315 480.655 232.422C478.64 231.511 477.046 230.171 475.872 228.401C474.716 226.614 474.138 224.389 474.138 221.727C474.138 219.484 474.549 217.601 475.373 216.077C476.196 214.553 477.317 213.326 478.737 212.398C480.156 211.469 481.767 210.768 483.572 210.295C485.394 209.822 487.303 209.49 489.3 209.297C491.648 209.052 493.54 208.824 494.977 208.614C496.413 208.386 497.455 208.053 498.104 207.615C498.752 207.177 499.076 206.529 499.076 205.67V205.513C499.076 203.848 498.55 202.561 497.499 201.65C496.466 200.739 494.994 200.283 493.085 200.283C491.07 200.283 489.467 200.73 488.276 201.624C487.084 202.5 486.296 203.603 485.911 204.935L475.557 204.094C476.082 201.641 477.116 199.521 478.658 197.734C480.199 195.93 482.188 194.546 484.623 193.582C487.076 192.601 489.914 192.111 493.137 192.111C495.379 192.111 497.526 192.374 499.575 192.899C501.643 193.425 503.473 194.239 505.067 195.343C506.679 196.447 507.949 197.866 508.878 199.6C509.806 201.317 510.271 203.375 510.271 205.776V233H499.654V227.403H499.339C498.691 228.664 497.823 229.777 496.737 230.74C495.651 231.686 494.346 232.431 492.822 232.974C491.298 233.499 489.537 233.762 487.54 233.762ZM490.746 226.036C492.393 226.036 493.847 225.712 495.108 225.064C496.369 224.398 497.359 223.505 498.077 222.384C498.796 221.262 499.155 219.992 499.155 218.573V214.29C498.804 214.518 498.323 214.728 497.71 214.92C497.114 215.096 496.439 215.262 495.686 215.42C494.933 215.56 494.179 215.691 493.426 215.814C492.673 215.919 491.99 216.015 491.376 216.103C490.063 216.296 488.915 216.602 487.934 217.023C486.953 217.443 486.191 218.013 485.648 218.731C485.105 219.432 484.833 220.308 484.833 221.359C484.833 222.883 485.385 224.048 486.489 224.854C487.61 225.642 489.029 226.036 490.746 226.036ZM518.956 233V192.636H529.625V199.758H530.098C530.939 197.393 532.34 195.527 534.302 194.161C536.264 192.794 538.612 192.111 541.345 192.111C544.113 192.111 546.469 192.803 548.414 194.187C550.358 195.553 551.655 197.41 552.303 199.758H552.723C553.547 197.445 555.036 195.597 557.191 194.213C559.363 192.812 561.93 192.111 564.89 192.111C568.657 192.111 571.714 193.311 574.061 195.711C576.426 198.094 577.609 201.475 577.609 205.854V233H566.441V208.062C566.441 205.819 565.845 204.138 564.654 203.016C563.462 201.895 561.973 201.335 560.186 201.335C558.154 201.335 556.569 201.983 555.43 203.279C554.291 204.558 553.722 206.249 553.722 208.351V233H542.869V207.825C542.869 205.846 542.3 204.269 541.161 203.095C540.04 201.921 538.559 201.335 536.72 201.335C535.476 201.335 534.355 201.65 533.356 202.281C532.375 202.894 531.596 203.761 531.017 204.882C530.439 205.986 530.15 207.282 530.15 208.771V233H518.956ZM597.962 233.762C595.386 233.762 593.091 233.315 591.077 232.422C589.062 231.511 587.468 230.171 586.294 228.401C585.138 226.614 584.56 224.389 584.56 221.727C584.56 219.484 584.971 217.601 585.795 216.077C586.618 214.553 587.739 213.326 589.158 212.398C590.577 211.469 592.189 210.768 593.994 210.295C595.816 209.822 597.725 209.49 599.722 209.297C602.07 209.052 603.962 208.824 605.398 208.614C606.835 208.386 607.877 208.053 608.526 207.615C609.174 207.177 609.498 206.529 609.498 205.67V205.513C609.498 203.848 608.972 202.561 607.921 201.65C606.888 200.739 605.416 200.283 603.506 200.283C601.492 200.283 599.889 200.73 598.697 201.624C597.506 202.5 596.718 203.603 596.332 204.935L585.979 204.094C586.504 201.641 587.538 199.521 589.08 197.734C590.621 195.93 592.61 194.546 595.045 193.582C597.497 192.601 600.335 192.111 603.559 192.111C605.801 192.111 607.947 192.374 609.997 192.899C612.064 193.425 613.895 194.239 615.489 195.343C617.101 196.447 618.371 197.866 619.3 199.6C620.228 201.317 620.692 203.375 620.692 205.776V233H610.076V227.403H609.761C609.112 228.664 608.245 229.777 607.159 230.74C606.073 231.686 604.768 232.431 603.244 232.974C601.719 233.499 599.959 233.762 597.962 233.762ZM601.168 226.036C602.814 226.036 604.268 225.712 605.53 225.064C606.791 224.398 607.781 223.505 608.499 222.384C609.218 221.262 609.577 219.992 609.577 218.573V214.29C609.226 214.518 608.745 214.728 608.131 214.92C607.536 215.096 606.861 215.262 606.108 215.42C605.355 215.56 604.601 215.691 603.848 215.814C603.095 215.919 602.411 216.015 601.798 216.103C600.484 216.296 599.337 216.602 598.356 217.023C597.375 217.443 596.613 218.013 596.07 218.731C595.527 219.432 595.255 220.308 595.255 221.359C595.255 222.883 595.807 224.048 596.911 224.854C598.032 225.642 599.451 226.036 601.168 226.036ZM640.572 209.665V233H629.377V179.182H640.257V199.758H640.73C641.641 197.375 643.112 195.509 645.145 194.161C647.177 192.794 649.726 192.111 652.792 192.111C655.595 192.111 658.038 192.724 660.123 193.95C662.225 195.159 663.855 196.902 665.011 199.18C666.185 201.44 666.763 204.146 666.745 207.3V233H655.551V209.297C655.568 206.809 654.938 204.873 653.659 203.489C652.397 202.105 650.628 201.413 648.35 201.413C646.826 201.413 645.477 201.737 644.304 202.386C643.147 203.034 642.236 203.98 641.571 205.224C640.922 206.45 640.59 207.93 640.572 209.665Z" fill="#313866"/>
<path d="M289.903 147.999H300.125C305.23 147.999 310.127 150.027 313.737 153.637C317.347 157.247 319.375 162.143 319.375 167.249V205.749C319.375 210.854 317.347 215.751 313.737 219.361C310.127 222.971 305.23 224.999 300.125 224.999H289.903C287.557 243.607 278.5 260.719 264.433 273.124C250.366 285.529 232.255 292.374 213.5 292.374V273.124C228.816 273.124 243.505 267.04 254.335 256.209C265.166 245.379 271.25 230.69 271.25 215.374V157.624C271.25 142.308 265.166 127.619 254.335 116.789C243.505 105.958 228.816 99.8739 213.5 99.8739C198.184 99.8739 183.495 105.958 172.665 116.789C161.834 127.619 155.75 142.308 155.75 157.624V224.999H126.875C121.77 224.999 116.873 222.971 113.263 219.361C109.653 215.751 107.625 210.854 107.625 205.749V167.249C107.625 162.143 109.653 157.247 113.263 153.637C116.873 150.027 121.77 147.999 126.875 147.999H137.097C139.446 129.393 148.503 112.283 162.57 99.8804C176.637 87.4777 194.746 80.6343 213.5 80.6343C232.254 80.6343 250.363 87.4777 264.43 99.8804C278.497 112.283 287.554 129.393 289.903 147.999ZM126.875 167.249V205.749H136.5V167.249H126.875ZM290.5 167.249V205.749H300.125V167.249H290.5ZM172.69 222.93L182.892 206.606C192.066 212.352 202.675 215.391 213.5 215.374C224.325 215.391 234.934 212.352 244.107 206.606L254.31 222.93C242.079 230.592 227.933 234.646 213.5 234.624C199.067 234.646 184.921 230.592 172.69 222.93Z" fill="#4999C6"/>
</svg>
