<?xml version="1.0" encoding="UTF-8" standalone="no"?> 
            <svg class="w-8 h-8 fill-white" id="Layer_1" data-name="Layer 1" xmlns="http://www.w3.org/2000/svg" viewBox="0 0 512 512">
                <title>Receipt</title>
                <path d="M405.333,21.333H106.667a32.035,32.035,0,0,0-32,32V473.26a16,16,0,0,0,23.156,14.313l27.786-13.9a5.334,5.334,0,0,1,4.776,0l28.359,14.182a26.818,26.818,0,0,0,23.849,0l28.349-14.182a5.334,5.334,0,0,1,4.776,0l28.359,14.182a26.818,26.818,0,0,0,23.849,0l28.359-14.182a5.317,5.317,0,0,1,4.76,0l28.365,14.182a26.818,26.818,0,0,0,23.849,0l28.349-14.182a5.334,5.334,0,0,1,4.776,0l27.8,13.9a16,16,0,0,0,23.151-14.312V53.333A32.035,32.035,0,0,0,405.333,21.333ZM416,464.63l-20.078-10.042a26.818,26.818,0,0,0-23.849,0l-28.349,14.182a5.367,5.367,0,0,1-4.776,0l-28.365-14.182a26.774,26.774,0,0,0-23.844.005l-28.349,14.177a5.367,5.367,0,0,1-4.776,0l-28.359-14.182a26.818,26.818,0,0,0-23.849,0l-28.349,14.182a5.367,5.367,0,0,1-4.776,0l-28.359-14.182a26.818,26.818,0,0,0-23.849,0L96,464.63V53.333a10.679,10.679,0,0,1,10.667-10.667H405.333A10.679,10.679,0,0,1,416,53.333Z" />
                <path d="M245.479,209.964c2.333.885,4.453,1.685,6.219,2.464,2.344,1.034,5.052,2.073,7.953,3.182,16.6,6.341,28.349,11.826,28.349,24.7,0,6.622-5.839,14.026-14.521,18.419-15.844,8.018-35.953,4.956-53.828-8.187a10.665,10.665,0,1,0-12.635,17.185c12.173,8.954,25.322,14.317,38.318,16.073v14.865a10.667,10.667,0,0,0,21.333,0v-15.4a61.935,61.935,0,0,0,16.443-5.494c16.177-8.187,26.224-22.539,26.224-37.458,0-28.56-26.333-38.62-42.068-44.63-2.536-.971-4.911-1.87-6.958-2.773s-4.531-1.854-7.255-2.888c-15.9-6.036-29.052-12.081-29.052-25,0-6.622,5.839-14.026,14.521-18.419,15.839-8.013,35.953-4.953,53.828,8.188A10.666,10.666,0,1,0,304.984,137.6c-12.173-8.951-25.323-14.371-38.318-16.126V106.667a10.667,10.667,0,1,0-21.333,0v15.348a62.026,62.026,0,0,0-16.443,5.551c-16.177,8.185-26.224,22.536-26.224,37.456C202.667,193.708,230.516,204.284,245.479,209.964Z" />
                <path d="M341.333,330.667H170.667a10.667,10.667,0,1,0,0,21.333H341.333a10.667,10.667,0,1,0,0-21.333Z" />
                <path d="M341.333,373.333H170.667a10.667,10.667,0,1,0,0,21.333H341.333a10.667,10.667,0,1,0,0-21.333Z" />
            </svg>